<svg width="26" height="26" viewBox="0 0 26 26" fill="none" xmlns="http://www.w3.org/2000/svg">
<path d="M13.0005 4.96231C14.8632 4.93402 16.6646 5.61902 18.0267 6.87356L21.6955 3.33237C19.3417 1.15528 16.2259 -0.0385234 13.0005 0.000948529C10.5905 0.000398862 8.22797 0.661603 6.17696 1.91062C4.12596 3.15963 2.46738 4.94721 1.38672 7.07344L5.59047 10.2951C6.10448 8.75231 7.09614 7.40774 8.42559 6.45097C9.75505 5.49421 11.3552 4.97351 13.0005 4.96231Z" fill="#E43E2B"/>
<path d="M25.4801 13.1184C25.4954 12.2363 25.4031 11.3556 25.2051 10.4952H13.0001V15.2579H20.1651C20.0292 16.093 19.7236 16.8922 19.2667 17.6076C18.8098 18.3231 18.211 18.9399 17.5064 19.421L21.6089 22.5575C22.8874 21.339 23.8929 19.8694 24.5604 18.2435C25.2278 16.6177 25.5424 14.8717 25.4839 13.1184H25.4801Z" fill="#3B7DED"/>
<path d="M5.60543 15.3706C5.3212 14.5537 5.17467 13.6963 5.17168 12.8325C5.17686 11.9702 5.31814 11.1139 5.59043 10.2945L1.38668 7.07288C0.47492 8.85968 0 10.8325 0 12.8332C0 14.8338 0.47492 16.8066 1.38668 18.5934L5.60543 15.3706Z" fill="#F0B501"/>
<path d="M13.0004 25.6651C16.167 25.7535 19.2476 24.6412 21.6091 22.557L17.5066 19.4205C16.1764 20.3007 14.6011 20.7493 13.0004 20.7037C11.3565 20.6941 9.7575 20.1737 8.43013 19.2165C7.10275 18.2593 6.11443 16.9138 5.60536 15.371L1.40161 18.5938C2.47936 20.7191 4.13522 22.5063 6.18375 23.7552C8.23229 25.0041 10.5926 25.6654 13.0004 25.6651Z" fill="#2BA24C"/>
</svg>
