<svg width="24" height="20" viewBox="0 0 24 20" fill="none" xmlns="http://www.w3.org/2000/svg">
<path fill-rule="evenodd" clip-rule="evenodd" d="M4.8 0H19.2C21.851 0 24 2.22578 24 4.97143V14.9143C24 17.6599 21.851 19.8857 19.2 19.8857H4.8C2.14903 19.8857 0 17.6599 0 14.9143V4.97143C0 2.22578 2.14903 0 4.8 0ZM5.52 3.16929C5.22177 2.75744 4.65764 2.67397 4.26 2.98286C3.86235 3.29174 3.78177 3.87601 4.08 4.28786L7.44 8.92786C9.72 12.0764 14.28 12.0764 16.56 8.92786L19.92 4.28786C20.2182 3.87601 20.1376 3.29174 19.74 2.98286C19.3424 2.67397 18.7782 2.75744 18.48 3.16929L15.12 7.80928C13.56 9.96357 10.44 9.96357 8.88 7.80928L5.52 3.16929Z" fill="#7B7B7B"/>
</svg>
